<svg xmlns="http://www.w3.org/2000/svg" version="1.1" xmlns:xlink="http://www.w3.org/1999/xlink" xmlns:svgjs="http://svgjs.dev/svgjs" width="2000" height="313" viewBox="0 0 2000 313"><g transform="matrix(1,0,0,1,-1.2121212121212466,-0.4545217572072602)"><svg viewBox="0 0 396 62" data-background-color="#000000" preserveAspectRatio="xMidYMid meet" height="313" width="2000" xmlns="http://www.w3.org/2000/svg" xmlns:xlink="http://www.w3.org/1999/xlink"><g id="tight-bounds" transform="matrix(1,0,0,1,0.2400000000000091,0.09003306372795805)"><svg viewBox="0 0 395.52 61.819933872544055" height="61.819933872544055" width="395.52"><g><svg viewBox="0 0 488.090244260209 76.28869999999999" height="61.819933872544055" width="395.52"><g><svg viewBox="0 0 488.090244260209 76.28869999999999" height="76.28869999999999" width="488.090244260209"><g id="textblocktransform"><svg viewBox="0 0 488.090244260209 76.28869999999999" height="76.28869999999999" width="488.090244260209" id="textblock"><g><svg viewBox="0 0 488.090244260209 76.28869999999999" height="76.28869999999999" width="488.090244260209"><g><svg><g></g><g></g></svg></g><g><svg><g></g><g><svg></svg></g></svg></g><g id="text-0"><svg viewBox="0 0 488.090244260209 76.28869999999999" height="76.28869999999999" width="488.090244260209"><g><svg xmlns="http://www.w3.org/2000/svg" xmlns:xlink="http://www.w3.org/1999/xlink" version="1.1" x="0" y="0" viewBox="11.982999999999999 10.931999999999997 76.035 77.79899999999999" enable-background="new 0 0 100 100" xml:space="preserve" height="76.28869999999999" width="74.55894426020899" class="icon-cg-0" data-fill-palette-color="accent" id="cg-0"><path d="M74.369 61.436c-3.535 0-6.746 1.354-9.17 3.559L39.106 51.69c0.104-0.679 0.174-1.369 0.174-2.078 0-0.399-0.026-0.792-0.06-1.183L65.561 35c2.378 2.012 5.449 3.23 8.809 3.23 7.537 0 13.648-6.11 13.648-13.648s-6.111-13.65-13.648-13.65c-7.539 0-13.65 6.111-13.65 13.65 0 0.416 0.026 0.826 0.063 1.232L34.476 39.227c-2.382-2.031-5.467-3.264-8.843-3.264-7.538 0-13.65 6.111-13.65 13.649 0 7.538 6.112 13.649 13.65 13.649 3.04 0 5.837-1.006 8.105-2.686l27.018 13.775c-0.013 0.244-0.037 0.485-0.037 0.732 0 7.539 6.111 13.649 13.65 13.649 7.537 0 13.648-6.11 13.648-13.649C88.018 67.546 81.906 61.436 74.369 61.436z" fill="#00ffff" data-fill-palette-color="accent"></path></svg></g><g transform="matrix(1,0,0,1,92.570244260209,6.917343971868718)"><svg width="395.52" viewBox="3.55 -36.5 298.58 47.150000000000006" height="62.454012056262556" data-palette-color="#ffffff"><path d="M17.6 0.5L17.6 0.5Q14.4 0.5 11.9-1.1 9.4-2.7 7.95-5.15L7.95-5.15 7.95 10.65 3.55 10.65 3.55-26.1 7.45-26.1 7.45-21.2Q9-23.6 11.5-25.08 14-26.55 16.95-26.55L16.95-26.55Q19.65-26.55 21.9-25.45 24.15-24.35 25.8-22.45 27.45-20.55 28.38-18.13 29.3-15.7 29.3-13.05L29.3-13.05Q29.3-9.35 27.83-6.25 26.35-3.15 23.7-1.33 21.05 0.5 17.6 0.5ZM16.25-3.3L16.25-3.3Q18.2-3.3 19.78-4.13 21.35-4.95 22.48-6.33 23.6-7.7 24.2-9.45 24.8-11.2 24.8-13.05L24.8-13.05Q24.8-15 24.13-16.75 23.45-18.5 22.23-19.85 21-21.2 19.38-21.98 17.75-22.75 15.85-22.75L15.85-22.75Q14.65-22.75 13.38-22.3 12.1-21.85 10.95-21.03 9.8-20.2 9-19.15 8.2-18.1 7.95-16.9L7.95-16.9 7.95-9.45Q8.7-7.75 9.95-6.35 11.2-4.95 12.85-4.13 14.5-3.3 16.25-3.3ZM48.5-26.25L48.5-22.25Q45.2-22.2 42.67-20.58 40.15-18.95 39.1-16.1L39.1-16.1 39.1 0 34.7 0 34.7-26.1 38.8-26.1 38.8-20.05Q40.15-22.75 42.37-24.43 44.6-26.1 47.05-26.3L47.05-26.3Q47.55-26.3 47.9-26.3 48.25-26.3 48.5-26.25L48.5-26.25ZM64.25 0.5L64.25 0.5Q61.3 0.5 58.9-0.58 56.5-1.65 54.75-3.53 53-5.4 52.05-7.85 51.09-10.3 51.09-13L51.09-13Q51.09-15.75 52.05-18.2 53-20.65 54.75-22.53 56.5-24.4 58.92-25.48 61.34-26.55 64.3-26.55L64.3-26.55Q67.2-26.55 69.59-25.48 72-24.4 73.77-22.53 75.55-20.65 76.5-18.2 77.45-15.75 77.45-13L77.45-13Q77.45-10.3 76.5-7.85 75.55-5.4 73.8-3.53 72.05-1.65 69.62-0.58 67.2 0.5 64.25 0.5ZM55.59-12.95L55.59-12.95Q55.59-10.25 56.77-8.05 57.95-5.85 59.9-4.58 61.84-3.3 64.25-3.3L64.25-3.3Q66.65-3.3 68.62-4.6 70.59-5.9 71.77-8.13 72.95-10.35 72.95-13.05L72.95-13.05Q72.95-15.75 71.77-17.95 70.59-20.15 68.62-21.45 66.65-22.75 64.25-22.75L64.25-22.75Q61.84-22.75 59.9-21.43 57.95-20.1 56.77-17.9 55.59-15.7 55.59-12.95ZM122.14-15.6L122.14 0 117.74 0 117.74-14.6Q117.74-18.7 116.42-20.65 115.09-22.6 112.49-22.6L112.49-22.6Q109.84-22.6 107.69-20.68 105.54-18.75 104.64-15.7L104.64-15.7 104.64 0 100.24 0 100.24-14.6Q100.24-18.75 98.94-20.68 97.64-22.6 95.04-22.6L95.04-22.6Q92.44-22.6 90.27-20.73 88.09-18.85 87.19-15.75L87.19-15.75 87.19 0 82.79 0 82.79-26.1 86.79-26.1 86.79-20.5Q88.39-23.4 90.94-24.98 93.49-26.55 96.69-26.55L96.69-26.55Q99.94-26.55 101.89-24.78 103.84-23 104.29-20.2L104.29-20.2Q106.04-23.3 108.54-24.93 111.04-26.55 114.24-26.55L114.24-26.55Q116.49-26.55 118.02-25.73 119.54-24.9 120.44-23.43 121.34-21.95 121.74-19.95 122.14-17.95 122.14-15.6L122.14-15.6ZM143.04 0.5L143.04 0.5Q139.84 0.5 137.34-1.1 134.84-2.7 133.39-5.15L133.39-5.15 133.39 10.65 128.99 10.65 128.99-26.1 132.89-26.1 132.89-21.2Q134.44-23.6 136.94-25.08 139.44-26.55 142.39-26.55L142.39-26.55Q145.09-26.55 147.34-25.45 149.59-24.35 151.24-22.45 152.89-20.55 153.81-18.13 154.74-15.7 154.74-13.05L154.74-13.05Q154.74-9.35 153.27-6.25 151.79-3.15 149.14-1.33 146.49 0.5 143.04 0.5ZM141.69-3.3L141.69-3.3Q143.64-3.3 145.22-4.13 146.79-4.95 147.92-6.33 149.04-7.7 149.64-9.45 150.24-11.2 150.24-13.05L150.24-13.05Q150.24-15 149.56-16.75 148.89-18.5 147.67-19.85 146.44-21.2 144.81-21.98 143.19-22.75 141.29-22.75L141.29-22.75Q140.09-22.75 138.81-22.3 137.54-21.85 136.39-21.03 135.24-20.2 134.44-19.15 133.64-18.1 133.39-16.9L133.39-16.9 133.39-9.45Q134.14-7.75 135.39-6.35 136.64-4.95 138.29-4.13 139.94-3.3 141.69-3.3ZM172.59-4.8L173.64-1.3Q173.09-1.05 172.14-0.65 171.19-0.25 169.94 0.05 168.69 0.35 167.29 0.35L167.29 0.35Q165.69 0.35 164.34-0.23 162.99-0.8 162.19-2.02 161.39-3.25 161.39-5.1L161.39-5.1 161.39-22.65 157.84-22.65 157.84-26.1 161.39-26.1 161.39-34.8 165.79-34.8 165.79-26.1 171.64-26.1 171.64-22.65 165.79-22.65 165.79-6.45Q165.89-5.05 166.74-4.38 167.59-3.7 168.74-3.7L168.74-3.7Q170.04-3.7 171.14-4.15 172.24-4.6 172.59-4.8L172.59-4.8ZM186.69 0.5L186.69 0.5Q183.44 0.5 180.59-0.58 177.74-1.65 175.69-3.8L175.69-3.8 177.38-6.9Q179.63-4.8 181.88-3.9 184.13-3 186.49-3L186.49-3Q189.19-3 190.88-4.03 192.59-5.05 192.59-7.05L192.59-7.05Q192.59-8.5 191.71-9.2 190.84-9.9 189.24-10.38 187.63-10.85 185.44-11.45L185.44-11.45Q182.74-12.25 180.88-13.15 179.03-14.05 178.09-15.4 177.13-16.75 177.13-18.8L177.13-18.8Q177.13-21.3 178.44-23.03 179.74-24.75 182.01-25.65 184.28-26.55 187.19-26.55L187.19-26.55Q190.09-26.55 192.44-25.65 194.78-24.75 196.49-23L196.49-23 194.49-19.95Q192.94-21.55 191.09-22.33 189.24-23.1 186.94-23.1L186.94-23.1Q185.59-23.1 184.28-22.78 182.99-22.45 182.13-21.63 181.28-20.8 181.28-19.3L181.28-19.3Q181.28-18.05 181.96-17.32 182.63-16.6 183.96-16.1 185.28-15.6 187.19-15L187.19-15Q190.13-14.15 192.31-13.3 194.49-12.45 195.69-11.1 196.88-9.75 196.88-7.35L196.88-7.35Q196.88-3.65 194.09-1.58 191.28 0.5 186.69 0.5ZM224.78-15.6L224.78 0 220.38 0 220.38-14.6Q220.38-18.6 218.96-20.6 217.53-22.6 214.88-22.6L214.88-22.6Q213.18-22.6 211.46-21.7 209.73-20.8 208.43-19.28 207.13-17.75 206.53-15.75L206.53-15.75 206.53 0 202.13 0 202.13-36.5 206.53-36.5 206.53-20.5Q208.08-23.3 210.76-24.93 213.43-26.55 216.53-26.55L216.53-26.55Q218.88-26.55 220.46-25.73 222.03-24.9 222.98-23.4 223.93-21.9 224.36-19.93 224.78-17.95 224.78-15.6L224.78-15.6ZM229.58-7.55L229.58-7.55Q229.58-10.05 231.01-11.88 232.43-13.7 234.93-14.7 237.43-15.7 240.73-15.7L240.73-15.7Q242.48-15.7 244.43-15.43 246.38-15.15 247.88-14.6L247.88-14.6 247.88-16.5Q247.88-19.5 246.08-21.23 244.28-22.95 240.98-22.95L240.98-22.95Q238.83-22.95 236.86-22.18 234.88-21.4 232.68-19.95L232.68-19.95 231.08-23.05Q233.63-24.8 236.18-25.68 238.73-26.55 241.48-26.55L241.48-26.55Q246.48-26.55 249.38-23.78 252.28-21 252.28-16.05L252.28-16.05 252.28-5Q252.28-4.2 252.61-3.83 252.93-3.45 253.68-3.4L253.68-3.4 253.68 0Q253.03 0.1 252.56 0.15 252.08 0.2 251.78 0.2L251.78 0.2Q250.23 0.2 249.46-0.65 248.68-1.5 248.58-2.45L248.58-2.45 248.48-4.1Q246.78-1.9 244.03-0.7 241.28 0.5 238.58 0.5L238.58 0.5Q235.98 0.5 233.93-0.58 231.88-1.65 230.73-3.48 229.58-5.3 229.58-7.55ZM246.58-5.7L246.58-5.7Q247.18-6.4 247.53-7.13 247.88-7.85 247.88-8.35L247.88-8.35 247.88-11.6Q246.33-12.2 244.63-12.53 242.93-12.85 241.28-12.85L241.28-12.85Q237.93-12.85 235.86-11.53 233.78-10.2 233.78-7.9L233.78-7.9Q233.78-6.65 234.46-5.48 235.13-4.3 236.46-3.55 237.78-2.8 239.73-2.8L239.73-2.8Q241.78-2.8 243.63-3.63 245.48-4.45 246.58-5.7ZM273.13-26.25L273.13-22.25Q269.83-22.2 267.3-20.58 264.78-18.95 263.73-16.1L263.73-16.1 263.73 0 259.33 0 259.33-26.1 263.43-26.1 263.43-20.05Q264.78-22.75 267-24.43 269.23-26.1 271.68-26.3L271.68-26.3Q272.18-26.3 272.53-26.3 272.88-26.3 273.13-26.25L273.13-26.25ZM289.03 0.5L289.03 0.5Q286.07 0.5 283.65-0.58 281.23-1.65 279.45-3.53 277.68-5.4 276.7-7.85 275.73-10.3 275.73-13.05L275.73-13.05Q275.73-16.75 277.43-19.8 279.13-22.85 282.15-24.7 285.18-26.55 289.07-26.55L289.07-26.55Q293.03-26.55 295.95-24.68 298.88-22.8 300.5-19.78 302.13-16.75 302.13-13.25L302.13-13.25Q302.13-12.75 302.1-12.28 302.07-11.8 302.03-11.55L302.03-11.55 280.38-11.55Q280.57-9 281.8-7.03 283.03-5.05 284.98-3.93 286.93-2.8 289.18-2.8L289.18-2.8Q291.57-2.8 293.7-4 295.82-5.2 296.63-7.15L296.63-7.15 300.43-6.1Q299.57-4.2 297.9-2.7 296.23-1.2 293.95-0.35 291.68 0.5 289.03 0.5ZM280.23-14.6L280.23-14.6 298.03-14.6Q297.82-17.15 296.57-19.1 295.32-21.05 293.38-22.15 291.43-23.25 289.07-23.25L289.07-23.25Q286.78-23.25 284.82-22.15 282.88-21.05 281.65-19.1 280.43-17.15 280.23-14.6Z" opacity="1" transform="matrix(1,0,0,1,0,0)" fill="#ffffff" class="wordmark-text-0" data-fill-palette-color="primary"></path></svg></g></svg></g></svg></g></svg></g></svg></g></svg></g><defs></defs></svg><rect width="395.52" height="61.819933872544055" fill="none" stroke="none" visibility="hidden"></rect></g></svg></g></svg>